# xmcd
#
# Track frame offsets:
#	182
#	19077
#	37882
#	56700
#	82660
#
# Disc length: 1447 seconds
# Revision: 0
# Processed by: cddbd v1.5.2PL0 Copyright (c) Steve Scherf et al.
# Submitted via: dBpowerAMP V12.0
#
DISCID=2d05a505
DTITLE=Jeremy Jordan - The Right Kind Of Love
DYEAR=1993
DGENRE=New Jack Swing
TTITLE0=The Right Kind Of Love [Main Mix - No Rap]
TTITLE1=The Right Kind Of Love [Main Mix]
TTITLE2=The Right Kind Of Love [Radio Fade Mix]
TTITLE3=The Right Kind Of Love [Hip Hop Jeep Mix]
TTITLE4=The Right Kind Of Love [Quiet Storm Mix]
EXTD=
EXTT0=
EXTT1=
EXTT2=
EXTT3=
EXTT4=
PLAYORDER=
